<svg xmlns="http://www.w3.org/2000/svg" viewBox="0 0 512 512" width="100%" height="100%">
  <rect width="512" height="512" fill="#000000"/>
  <g transform="translate(256, 256)">
    <!-- 圆顶草垛 -->
    <path fill="#E9EFEA" d="M -220,180 C -230,40 -150,-150 0,-180 C 150,-150 230,40 220,180 Z"/>
    <!-- 草茎纹（负形弧） -->
    <path fill="#000000" d="M -150,170 C -150,60 -110,-40 -40,-110 L -30,-100 C -95,-30 -135,70 -135,170 Z"/>
    <path fill="#000000" d="M -10,170 C -15,60 0,-60 20,-140 L 34,-136 C 15,-60 5,60 6,170 Z"/>
    <path fill="#000000" d="M 130,170 C 135,70 110,-20 60,-100 L 72,-108 C 125,-25 150,70 146,170 Z"/>
    <!-- 捆绳（负形） -->
    <rect x="-230" y="40" width="460" height="16" fill="#000000"/>
    <!-- 顶上翘起的草梢 -->
    <path fill="#E9EFEA" d="M -10,-175 L -40,-230 L -20,-232 L 5,-180 L 30,-235 L 48,-228 L 15,-172 Z"/>
  </g>
</svg>
