<svg xmlns="http://www.w3.org/2000/svg" viewBox="0 0 512 512" width="100%" height="100%">
  <rect width="512" height="512" fill="#000000"/>
  <g transform="translate(256, 256)">
    <rect x="110" y="-215" width="50" height="90" fill="#E9EFEA"/>
    <path fill="#E9EFEA" d="M -245,-60 L 0,-225 L 245,-60 L 215,-40 L 0,-185 L -215,-40 Z"/>
    <path fill="#E9EFEA" d="M -190,-45 L 0,-170 L 190,-45 L 190,205 L -190,205 Z"/>
    <rect x="-150" y="-50" width="300" height="230" rx="14" fill="#000000"/>
    <g transform="translate(0,65) scale(0.52)"><path fill="#E9EFEA" d="M -120,-150 L 80,-150 L 70,170 L -110,170 Z"/><path fill="#E9EFEA" d="M 75,-90 C 190,-90 190,100 72,100 L 73,50 C 130,50 130,-40 77,-40 Z"/><path fill="#E9EFEA" d="M -135,-150 C -140,-210 -60,-220 -30,-190 C 0,-230 90,-210 95,-150 Z"/><rect x="-70" y="-100" width="20" height="220" fill="#000000"/><rect x="0" y="-100" width="20" height="220" fill="#000000"/></g>
  </g>
</svg>
