<svg xmlns="http://www.w3.org/2000/svg" viewBox="0 0 512 512" width="100%" height="100%">
  <rect width="512" height="512" fill="#000000"/>
  <g transform="translate(256, 256)">
    <path fill="#E9EFEA" d="M -250,-120 L -170,-190 L -110,-140 L -20,-230 L 80,-150 L 150,-200 L 250,-120 L 250,-105 L -250,-105 Z"/>
    <rect x="-250" y="195" width="500" height="20" fill="#E9EFEA"/>
    <g transform="translate(0,30) scale(0.8) translate(0,0)">
    <!-- 叠放的方石块 -->
    <rect x="-220" y="70" width="200" height="130" rx="8" fill="#E9EFEA"/>
    <rect x="0" y="70" width="220" height="130" rx="8" fill="#E9EFEA"/>
    <rect x="-130" y="-70" width="230" height="125" rx="8" fill="#E9EFEA"/>
    <!-- 石面凿痕（负形） -->
    <rect x="-180" y="125" width="80" height="10" fill="#000000"/>
    <rect x="60" y="110" width="10" height="60" fill="#000000"/>
    <rect x="-60" y="-20" width="90" height="10" fill="#000000"/>
    <!-- 斜搁的鹤嘴镐 -->
    <g transform="translate(120,-95) rotate(25)">
      <rect x="-10" y="-30" width="20" height="170" rx="6" fill="#E9EFEA"/>
      <path fill="#E9EFEA" d="M -100,-30 C -50,-70 50,-70 100,-30 L 90,-15 C 50,-40 -50,-40 -90,-15 Z"/>
    </g>
</g>
  </g>
</svg>
