<svg xmlns="http://www.w3.org/2000/svg" viewBox="0 0 512 512" width="100%" height="100%">
  <rect width="512" height="512" fill="#000000"/>
  <g transform="translate(288, 242) scale(0.90)">
    <path fill="#E9EFEA" d="M -144,-212 C -78,-146 -48,-90 -56,-38 C -64,20 -114,48 -162,34 C -210,20 -230,-32 -218,-84 C -206,-138 -184,-162 -144,-212 Z"/>
    <path fill="#E9EFEA" d="M 88,-102 C 134,-52 154,-6 148,30 C 142,70 108,92 76,80 C 44,68 30,30 38,-10 C 46,-52 62,-72 88,-102 Z"/>
    <path fill="#E9EFEA" d="M 0,100 C 38,138 56,176 52,204 C 48,236 20,250 -8,242 C -36,234 -48,204 -42,172 C -36,142 -24,130 0,100 Z"/>
  </g>
</svg>
